<svg version="1.1" id="Capa_1" xmlns="http://www.w3.org/2000/svg"  x="0px" y="0px"
	 viewBox="0 0 512 512" style="enable-background:new 0 0 512 512;" xml:space="preserve">
<g>
	<g>
		<path fill="white" d="M362,407.723c-5.52,0-10,4.48-10,10c0,5.52,4.48,10,10,10c5.52,0,10-4.48,10-10C372,412.203,367.52,407.723,362,407.723z"
			/>
	</g>
</g>
<g>
	<g>
		<path fill="white" d="M150,407.723c-5.52,0-10,4.48-10,10c0,5.52,4.48,10,10,10s10-4.48,10-10C160,412.203,155.52,407.723,150,407.723z"/>
	</g>
</g>
<g>
	<g>
		<path fill="white" d="M110,267.723c-5.52,0-10,4.48-10,10c0,5.52,4.48,10,10,10s10-4.48,10-10C120,272.203,115.52,267.723,110,267.723z"/>
	</g>
</g>
<g>
	<g>
		<path fill="white" d="M410,267.723H150c-5.522,0-10,4.478-10,10c0,5.522,4.478,10,10,10h260c5.522,0,10-4.478,10-10
			C420,272.201,415.522,267.723,410,267.723z"/>
	</g>
</g>
<g>
	<g>
		<path fill="white" d="M502,167.723h-41.857L351.352,58.932c-19.494-19.492-51.209-19.492-70.703,0L256,83.58l-24.648-24.648
			c-19.538-19.538-51.161-19.542-70.703,0L51.857,167.723H10c-5.522,0-10,4.478-10,10v40c0,13.669,9.193,25.224,21.718,28.828
			l35.039,157.678c3.069,13.833,15.111,23.494,29.283,23.494h14.966c4.646,22.795,24.847,40,48.994,40
			c24.147,0,44.348-17.205,48.994-40h114.012c4.646,22.795,24.847,40,48.994,40s44.348-17.205,48.994-40h14.966
			c14.172,0,26.214-9.661,29.282-23.491l35.04-157.681C502.807,242.947,512,231.392,512,217.723v-40
			C512,172.2,507.522,167.723,502,167.723z M294.791,73.074c11.695-11.695,30.723-11.695,42.418,0l94.648,94.648h-91.715l-70-70
			L294.791,73.074z M174.791,73.074c11.695-11.695,30.723-11.695,42.418,0l94.648,94.648H80.143L174.791,73.074z M150,447.723
			c-16.542,0-30-13.458-30-30s13.458-30,30-30s30,13.458,30,30S166.542,447.723,150,447.723z M362,447.723
			c-16.542,0-30-13.458-30-30s13.458-30,30-30s30,13.458,30,30S378.542,447.723,362,447.723z M435.718,399.897
			c-1.006,4.535-5.11,7.826-9.758,7.826h-14.966c-4.646-22.795-24.847-40-48.994-40s-44.348,17.205-48.994,40H198.994
			c-4.646-22.795-24.847-40-48.994-40c-24.147,0-44.348,17.205-48.994,40H86.04c-4.647,0-8.752-3.291-9.759-7.829L42.466,247.723
			h427.068L435.718,399.897z M492,217.723c0,5.514-4.486,10-10,10H30c-5.514,0-10-4.486-10-10v-30h472V217.723z"/>
	</g>
</g>
</svg>
