<svg height="598pt" viewBox="-18 -44 598.6777 598" width="598pt" xmlns="http://www.w3.org/2000/svg">
    <path fill="white" d="m546.566406 157.976562-.15625-.058593-108.316406-36.480469v-51.058594c-.011719-12.167968-9.875-22.03125-22.039062-22.042968h-136.148438l-11.054688-33.445313c-4.125-12.425781-17.523437-19.167969-29.957031-15.078125l-222.621093 73.601562c-12.429688 4.109376-19.179688 17.519532-15.070313 29.953126l108.046875 326.828124c1.964844 5.976563 6.222656 10.929688 11.847656 13.757813 5.621094 2.828125 12.136719 3.300781 18.105469 1.3125l51.398437-16.992187h10.269532l222.414062 78.59375c11.480469 4.058593 24.074219-1.960938 28.125-13.441407l108.59375-307.332031c4.039063-11.472656-1.972656-24.050781-13.4375-28.117188zm-130.9375-87.175781v325.105469h-127.097656l73.289062-24.230469c12.4375-4.109375 19.183594-17.523437 15.074219-29.953125l-89.558593-270.921875zm-283.476562 353.140625c-.652344.21875-1.355469-.136718-1.574219-.792968l-108.046875-326.832032c-.214844-.652344.140625-1.359375.792969-1.574218l222.621093-73.59375c.125-.042969.261719-.066407.394532-.066407.535156.007813 1.007812.347657 1.179687.855469l108.050781 326.832031c.101563.3125.078126.65625-.070312.953125-.152344.296875-.410156.519532-.726562.625l-137.8125 45.554688h-1.96875v.652344zm298.214844 61.605469-190.101563-67.175781h175.789063c12.167968-.011719 22.027343-9.871094 22.039062-22.039063v-251.191406l100.585938 33.882813zm0 0"/>
</svg>
