<svg xmlns="http://www.w3.org/2000/svg" version="1.1" viewBox="0 -41 567.203 567">
<g id="surface1" stroke="black" fill="black">
<path d="M 544.25 0.0859375 L 453.558594 0.0859375 C 447.824219 0.0859375 443.171875 4.742188 443.171875 10.476562 L 437.558594 219.90625 L 420.523438 219.90625 L 272.28125 129.628906 C 267.386719 126.636719 260.988281 128.1875 257.996094 133.078125 C 256.917969 134.84375 256.386719 136.902344 256.488281 138.980469 L 256.488281 220.113281 L 220.441406 220.113281 L 72.09375 129.628906 C 67.191406 126.648438 60.804688 128.195312 57.820312 133.101562 C 56.835938 134.710938 56.316406 136.570312 56.304688 138.460938 L 56.304688 219.59375 L 10.386719 219.59375 C 4.65625 219.59375 0 224.25 0 229.984375 L 0 475.355469 C 0 481.089844 4.65625 485.746094 10.386719 485.746094 L 556.613281 485.746094 C 562.34375 485.746094 567 481.089844 567 475.355469 L 554.636719 10.164062 C 554.472656 4.542969 549.871094 0.0859375 544.25 0.0859375 Z M 463.636719 20.863281 L 534.070312 20.863281 L 534.898438 52.652344 L 462.804688 52.652344 Z M 277.265625 156.953125 L 380.527344 219.285156 L 277.265625 219.285156 C 277.265625 219.28125 277.265625 156.953125 277.265625 156.953125 Z M 77.1875 156.953125 L 180.449219 219.285156 L 77.082031 219.285156 Z M 488.566406 464.96875 L 21.089844 464.96875 L 21.089844 240.371094 L 488.566406 240.371094 Z M 509.34375 464.96875 L 509.34375 229.984375 C 509.34375 224.25 504.691406 219.59375 498.957031 219.59375 L 458.441406 219.59375 L 462.285156 73.429688 L 535.523438 73.429688 L 545.914062 464.96875 Z M 509.34375 464.96875 " stroke-width="10" />
<path d="M 142.113281 310.285156 L 63.785156 310.285156 C 58.050781 310.285156 53.398438 314.941406 53.398438 320.675781 L 53.398438 383.523438 C 53.398438 389.257812 58.050781 393.910156 63.785156 393.910156 L 142.113281 393.910156 C 147.847656 393.910156 152.503906 389.257812 152.503906 383.523438 L 152.503906 320.675781 C 152.503906 314.9375 147.847656 310.285156 142.113281 310.285156 Z M 131.726562 373.136719 L 74.171875 373.136719 L 74.171875 331.0625 L 131.726562 331.0625 Z M 131.726562 373.136719 " />
<path d="M 293.890625 310.285156 L 215.457031 310.285156 C 209.722656 310.285156 205.066406 314.941406 205.066406 320.675781 L 205.066406 383.523438 C 205.066406 389.257812 209.722656 393.910156 215.457031 393.910156 L 293.890625 393.910156 C 299.621094 393.910156 304.277344 389.257812 304.277344 383.523438 L 304.277344 320.675781 C 304.277344 314.9375 299.621094 310.285156 293.890625 310.285156 Z M 283.5 373.136719 L 225.84375 373.136719 L 225.84375 331.0625 L 283.5 331.0625 Z M 283.5 373.136719 " />
<path d="M 356.738281 320.675781 L 356.738281 383.523438 C 356.738281 389.257812 361.394531 393.910156 367.125 393.910156 L 445.457031 393.910156 C 451.191406 393.910156 455.84375 389.257812 455.84375 383.523438 L 455.84375 320.675781 C 455.84375 314.941406 451.191406 310.285156 445.457031 310.285156 L 367.125 310.285156 C 361.394531 310.285156 356.738281 314.9375 356.738281 320.675781 Z M 377.515625 331.0625 L 435.066406 331.0625 L 435.066406 373.136719 L 377.515625 373.136719 Z M 377.515625 331.0625 " />
</g>
</svg>
