<svg version="1.1" xmlns="http://www.w3.org/2000/svg" x="0px" y="0px"
	 viewBox="0 0 511.754 511.754" style="enable-background:new 0 0 511.754 511.754;" xml:space="preserve">
<path style="fill:#656D78;" d="M483.65,387.814h-31.984c8.832,0,15.992-7.161,15.992-15.992c0-8.832-7.16-15.992-15.992-15.992
	h-31.984c8.831,0,15.992-7.161,15.992-15.992c0-8.832-7.161-15.993-15.992-15.993h-47.978c8.832,0,15.993-7.16,15.993-15.992
	c0-8.831-7.161-15.992-15.993-15.992h87.958c8.832,0,15.992-7.16,15.992-15.992s-7.16-15.992-15.992-15.992h-39.98
	c8.831,0,15.992-7.161,15.992-15.992c0-8.832-7.161-15.992-15.992-15.992H403.69c8.831,0,15.992-7.161,15.992-15.992
	c0-8.832-7.161-15.993-15.992-15.993h79.961c8.832,0,15.992-7.161,15.992-15.992s-7.16-15.993-15.992-15.993h-31.984
	c8.832,0,15.992-7.16,15.992-15.992s-7.16-15.992-15.992-15.992h-31.984c8.831,0,15.992-7.161,15.992-15.992
	c0-8.832-7.161-15.992-15.992-15.992h-23.988c8.831,0,15.992-7.161,15.992-15.992c0-8.832-7.161-15.993-15.992-15.993H155.809
	c-8.832,0-15.992,7.161-15.992,15.993c0,8.831,7.161,15.992,15.992,15.992H99.835c-8.832,0-15.992,7.16-15.992,15.992
	s7.161,15.992,15.992,15.992H83.843c-8.832,0-15.992,7.161-15.992,15.992c0,8.832,7.16,15.992,15.992,15.992h47.977
	c-8.831,0-15.992,7.161-15.992,15.993s7.161,15.992,15.992,15.992H43.863c-8.832,0-15.993,7.161-15.993,15.993
	c0,8.831,7.161,15.992,15.993,15.992h39.98c-8.832,0-15.992,7.16-15.992,15.992s7.16,15.992,15.992,15.992h-39.98
	c-8.832,0-15.993,7.16-15.993,15.992s7.161,15.992,15.993,15.992H27.87c-8.832,0-15.993,7.161-15.993,15.992
	c0,8.832,7.161,15.992,15.993,15.992h39.981c-8.832,0-15.992,7.161-15.992,15.993c0,8.831,7.16,15.992,15.992,15.992H51.859
	c-8.832,0-15.993,7.16-15.993,15.992c0,8.831,7.161,15.992,15.993,15.992h79.961c-8.831,0-15.992,7.161-15.992,15.992
	c0,8.832,7.161,15.992,15.992,15.992H99.835c-8.832,0-15.992,7.161-15.992,15.993c0,8.831,7.161,15.992,15.992,15.992h271.869
	c8.832,0,15.993-7.161,15.993-15.992c0-8.832-7.161-15.993-15.993-15.993H483.65c8.832,0,15.992-7.16,15.992-15.992
	C499.643,394.975,492.482,387.814,483.65,387.814z"/>
<path style="fill:#AC92EC;" d="M55.857,499.76c0,4.42-3.581,7.996-7.996,7.996c-4.416,0-7.997-3.576-7.997-7.996
	s3.581-7.996,7.997-7.996C52.276,491.764,55.857,495.34,55.857,499.76z"/>
<path style="fill:#ED5565;" d="M403.689,259.875c0,81.695-66.234,147.929-147.929,147.929c-81.699,0-147.929-66.233-147.929-147.929
	s66.23-147.929,147.929-147.929C337.455,111.946,403.689,178.18,403.689,259.875z"/>
<g style="opacity:0.3;">
	<path style="fill:#FFFFFF;" d="M139.816,259.875c0-76.288,57.765-139.054,131.936-147.031c-5.263-0.566-10.584-0.898-15.992-0.898
		c-81.699,0-147.929,66.233-147.929,147.929s66.23,147.929,147.929,147.929c5.408,0,10.729-0.327,15.992-0.897
		C197.582,398.934,139.816,336.166,139.816,259.875z"/>
</g>
<g style="opacity:0.2;">
	<path d="M371.704,259.875c0,76.291-57.769,139.059-131.936,147.031c5.259,0.57,10.585,0.897,15.992,0.897
		c81.695,0,147.929-66.233,147.929-147.929S337.455,111.945,255.76,111.945c-5.407,0-10.733,0.332-15.992,0.898
		C313.936,120.821,371.704,183.587,371.704,259.875z"/>
</g>
<path style="fill:#DA4453;" d="M339.72,227.891c0,6.622-12.533,11.994-27.986,11.994c-15.462,0-27.987-5.373-27.987-11.994
	c0-6.622,12.525-11.994,27.987-11.994C327.187,215.897,339.72,221.269,339.72,227.891z"/>
<path style="fill:#DA4453;" d="M211.782,295.857c0,4.42-10.741,7.996-23.988,7.996c-13.248,0-23.989-3.576-23.989-7.996
	c0-4.412,10.741-7.996,23.989-7.996C201.041,287.861,211.782,291.445,211.782,295.857z"/>
<g style="opacity:0.2;">
	<path d="M171.801,295.857c0-3.951,8.656-7.223,19.99-7.863c-1.308-0.07-2.628-0.133-3.998-0.133
		c-13.248,0-23.989,3.584-23.989,7.996c0,4.42,10.741,7.996,23.989,7.996c1.37,0,2.69-0.062,3.998-0.133
		C180.457,303.081,171.801,299.824,171.801,295.857z"/>
</g>
<path style="fill:#DA4453;" d="M331.724,335.839c0,4.419-8.957,7.996-19.99,7.996c-11.042,0-19.99-3.577-19.99-7.996
	c0-4.412,8.948-7.997,19.99-7.997C322.767,327.842,331.724,331.427,331.724,335.839z"/>
<g style="opacity:0.2;">
	<path d="M299.739,335.839c0-3.866,6.863-7.091,15.992-7.841c-1.296-0.102-2.632-0.156-3.998-0.156
		c-11.042,0-19.99,3.585-19.99,7.997c0,4.419,8.948,7.996,19.99,7.996c1.366,0,2.702-0.055,3.998-0.156
		C306.603,342.929,299.739,339.712,299.739,335.839z"/>
</g>
<g>
	<path style="fill:#3A3847;" d="M255.76,411.802c-83.772,0-151.927-68.154-151.927-151.927s68.155-151.927,151.927-151.927
		s151.927,68.154,151.927,151.927S339.532,411.802,255.76,411.802z M255.76,115.944c-79.364,0-143.931,64.566-143.931,143.931
		c0,79.368,64.567,143.931,143.931,143.931c79.36,0,143.931-64.562,143.931-143.931C399.691,180.511,335.12,115.944,255.76,115.944z
		"/>
	<path style="fill:#3A3847;" d="M171.801,227.891h-59.558c-2.21,0-3.998-1.788-3.998-3.998s1.788-3.998,3.998-3.998h59.558
		c2.209,0,3.998,1.788,3.998,3.998S174.011,227.891,171.801,227.891z"/>
	<path style="fill:#3A3847;" d="M399.277,299.856H275.75c-2.209,0-3.998-1.788-3.998-3.998c0-2.209,1.789-3.998,3.998-3.998h123.527
		c2.209,0,3.998,1.789,3.998,3.998C403.275,298.067,401.486,299.856,399.277,299.856z"/>
	<path style="fill:#3A3847;" d="M371.634,171.917h-39.91c-2.21,0-3.998-1.788-3.998-3.998c0-2.209,1.788-3.998,3.998-3.998h39.91
		c2.21,0,3.998,1.789,3.998,3.998C375.632,170.129,373.844,171.917,371.634,171.917z"/>
	<path style="fill:#3A3847;" d="M251.762,363.825H146.711c-2.21,0-3.998-1.788-3.998-3.998s1.788-3.998,3.998-3.998h105.051
		c2.21,0,3.998,1.788,3.998,3.998S253.972,363.825,251.762,363.825z"/>
	<path style="fill:#3A3847;" d="M311.733,243.883c-15.899,0-31.985-5.493-31.985-15.992c0-20.998,63.97-20.998,63.97,0
		C343.718,238.39,327.624,243.883,311.733,243.883z M311.733,219.895c-14.884,0-23.989,5.177-23.989,7.996s9.105,7.996,23.989,7.996
		c14.876,0,23.988-5.177,23.988-7.996C335.722,225.071,326.609,219.895,311.733,219.895z"/>
	<path style="fill:#3A3847;" d="M219.778,179.914c-11.396,0-19.99-5.158-19.99-11.995c0-6.836,8.594-11.994,19.99-11.994
		c11.397,0,19.99,5.158,19.99,11.994C239.768,174.756,231.175,179.914,219.778,179.914z M219.778,163.921
		c-7.738,0-11.994,3.003-11.994,3.998c0,0.996,4.256,3.998,11.994,3.998s11.994-3.002,11.994-3.998
		C231.772,166.924,227.516,163.921,219.778,163.921z"/>
	<path style="fill:#3A3847;" d="M187.794,307.852c-13.931,0-27.987-3.709-27.987-11.994s14.056-11.994,27.987-11.994
		s27.986,3.709,27.986,11.994S201.724,307.852,187.794,307.852z M168.166,295.857c1.878,1.484,8.574,3.998,19.627,3.998
		s17.749-2.514,19.627-3.998c-1.878-1.476-8.582-3.998-19.627-3.998C176.748,291.859,170.044,294.382,168.166,295.857z"/>
	<path style="fill:#3A3847;" d="M311.733,347.833c-11.558,0-23.989-3.749-23.989-11.994c0-8.246,12.432-11.995,23.989-11.995
		c11.549,0,23.988,3.749,23.988,11.995C335.722,344.084,323.282,347.833,311.733,347.833z M311.733,331.841
		c-9.933,0-15.493,3.014-16.031,4.216c0.538,0.766,6.091,3.78,16.031,3.78c9.933,0,15.484-3.015,16.023-4.217
		C327.218,334.855,321.658,331.841,311.733,331.841z"/>
</g>
</svg>
