<svg enable-background="new 0 0 512.519 512.519" height="512" viewBox="0 0 512.519 512.519" width="512" xmlns="http://www.w3.org/2000/svg"><path fill="white" d="m510.886 378.491c.628-1.47 1.254-3.456 1.27-6.002v-234.026c-.081-2.428-.464-5.102-2.416-8.163l-80.106-123.5c-3.084-3.642-5.355-6.887-13.662-6.798l-274.507 19.768c-3.646.347-7.578 1.849-10.568 5.507l-103.731 127.767c-1.435 1.938-2.725 3.96-3.224 7.482l-23.48 173.264c-.43 3.827.459 9.181 4.573 12.928l171.308 161.541c3.401 2.351 3.194 3.672 10.575 4.261h192.081c3.353-.012 7.959-1.308 11.007-4.702l118.043-125.016c.594-.664 2.084-2.393 2.837-4.311zm-126.035 91.088-70.046-191.51 158.773 97.541zm-348.795-134.844 128.484-148.98 102.842 63.18-86.476 222.393zm15.804-156.826 77.757 2.405-92.639 107.417zm80.728-107.118 11.532 79.957-74.575-2.306zm342.805 61.684-188.701 93.114-96.136-59.06 221.746-131.322zm-302.229 9.488-13.475-93.427 194.939-14.039zm112.307 143.237 72.171 197.32h-148.897zm31.42-41.06 165.265-81.55v183.078z"/></svg>
