<svg version="1.1" xmlns="http://www.w3.org/2000/svg" x="0px" y="0px"
	 viewBox="0 0 511.788 511.788" style="enable-background:new 0 0 511.788 511.788;" xml:space="preserve">
<path style="fill:#656D78;" d="M483.583,387.799h-31.984c8.824,0,15.992-7.16,15.992-15.992s-7.168-15.992-15.992-15.992h-31.984
	c8.823,0,15.992-7.161,15.992-15.992c0-8.832-7.169-15.993-15.992-15.993h-47.978c8.824,0,15.993-7.16,15.993-15.992
	c0-8.831-7.169-15.992-15.993-15.992h87.958c8.824,0,15.992-7.16,15.992-15.992s-7.168-15.992-15.992-15.992h-39.98
	c8.823,0,15.992-7.161,15.992-15.992c0-8.832-7.169-15.992-15.992-15.992h-15.992c8.823,0,15.992-7.161,15.992-15.992
	c0-8.832-7.169-15.993-15.992-15.993h79.961c8.824,0,15.992-7.161,15.992-15.992s-7.168-15.993-15.992-15.993H451.6
	c8.824,0,15.992-7.16,15.992-15.992s-7.168-15.992-15.992-15.992h-31.984c8.823,0,15.992-7.161,15.992-15.992
	c0-8.832-7.169-15.992-15.992-15.992h-23.988c8.823,0,15.992-7.161,15.992-15.992c0-8.832-7.169-15.993-15.992-15.993H155.729
	c-8.824,0-15.992,7.161-15.992,15.993c0,8.831,7.168,15.992,15.992,15.992H99.756c-8.824,0-15.992,7.16-15.992,15.992
	s7.168,15.992,15.992,15.992H83.764c-8.824,0-15.992,7.161-15.992,15.992c0,8.832,7.168,15.992,15.992,15.992h47.977
	c-8.824,0-15.993,7.161-15.993,15.993s7.169,15.992,15.993,15.992H43.784c-8.824,0-15.993,7.161-15.993,15.993
	c0,8.831,7.168,15.992,15.993,15.992h39.98c-8.824,0-15.992,7.16-15.992,15.992s7.168,15.992,15.992,15.992h-39.98
	c-8.824,0-15.993,7.16-15.993,15.992s7.168,15.992,15.993,15.992H27.791c-8.824,0-15.992,7.161-15.992,15.992
	c0,8.832,7.168,15.992,15.992,15.992h39.981c-8.824,0-15.992,7.161-15.992,15.993c0,8.831,7.168,15.992,15.992,15.992H51.78
	c-8.824,0-15.993,7.16-15.993,15.992s7.168,15.992,15.993,15.992h79.961c-8.824,0-15.993,7.161-15.993,15.992
	c0,8.832,7.169,15.992,15.993,15.992H99.756c-8.824,0-15.992,7.161-15.992,15.993c0,8.831,7.168,15.992,15.992,15.992h271.881
	c8.824,0,15.993-7.161,15.993-15.992c0-8.832-7.169-15.993-15.993-15.993h111.946c8.824,0,15.992-7.16,15.992-15.992
	C499.576,394.96,492.408,387.799,483.583,387.799z"/>
<path style="fill:#AC92EC;" d="M91.752,439.806c0,4.419-3.584,7.996-7.996,7.996s-7.996-3.577-7.996-7.996
	c0-4.42,3.584-7.996,7.996-7.996S91.752,435.386,91.752,439.806z"/>
<g style="opacity:0.5;">
	<path style="fill:#FFFFFF;" d="M443.587,50.055c-2.733-2.748-7.184-2.748-9.933,0c-2.749,2.749-2.749,7.192,0,9.933l9.933,9.933
		l9.933-9.933c2.749-2.733,2.749-7.184,0-9.933C450.787,47.307,446.335,47.315,443.587,50.055z"/>
</g>
<path style="fill:#5D9CEC;" d="M403.607,259.892c0,81.695-66.234,147.929-147.933,147.929c-81.695,0-147.929-66.233-147.929-147.929
	c0-81.699,66.234-147.929,147.929-147.929C337.373,111.963,403.607,178.193,403.607,259.892z"/>
<g style="opacity:0.3;">
	<path style="fill:#FFFFFF;" d="M139.729,259.892c0-76.292,57.769-139.05,131.94-147.031c-5.263-0.566-10.592-0.898-15.996-0.898
		c-81.695,0-147.929,66.229-147.929,147.929c0,81.695,66.234,147.929,147.929,147.929c5.404,0,10.733-0.327,15.996-0.897
		C197.498,398.943,139.729,336.183,139.729,259.892z"/>
</g>
<g style="opacity:0.2;">
	<path d="M371.622,259.892c0,76.291-57.769,139.051-131.94,147.031c5.256,0.57,10.589,0.897,15.993,0.897
		c81.699,0,147.933-66.233,147.933-147.929c0-81.699-66.234-147.929-147.933-147.929c-5.404,0-10.737,0.332-15.993,0.898
		C313.853,120.842,371.622,183.601,371.622,259.892z"/>
</g>
<g style="opacity:0.5;">
	<path style="fill:#FFFFFF;" d="M291.661,259.861c0,6.63-16.103,11.994-35.987,11.994c-19.866,0-35.983-5.364-35.983-11.994
		c0-6.622,16.117-11.994,35.983-11.994C275.558,247.867,291.661,253.239,291.661,259.861z"/>
</g>
<g>
	<path style="fill:#3A3847;" d="M255.674,411.819c-83.772,0-151.927-68.154-151.927-151.927s68.155-151.927,151.927-151.927
		c83.776,0,151.931,68.154,151.931,151.927S339.45,411.819,255.674,411.819z M255.674,115.961
		c-79.36,0-143.931,64.566-143.931,143.931c0,79.368,64.571,143.931,143.931,143.931c79.356,0,143.935-64.562,143.935-143.931
		C399.609,180.528,335.03,115.961,255.674,115.961z"/>
	<path style="fill:#3A3847;" d="M255.674,275.884c-19.256,0-39.981-5.005-39.981-15.992c0-10.987,20.725-15.992,39.981-15.992
		c19.26,0,39.985,5.005,39.985,15.992C295.659,270.879,274.934,275.884,255.674,275.884z M255.674,251.896
		c-20.99,0-31.985,5.942-31.985,7.996s10.995,7.996,31.985,7.996c20.994,0,31.989-5.942,31.989-7.996
		S276.667,251.896,255.674,251.896z"/>
	<path style="fill:#3A3847;" d="M131.476,231.894c-1.468,0-2.944-0.117-4.38-0.355c-2.179-0.359-3.647-2.421-3.288-4.6
		c0.359-2.183,2.39-3.686,4.6-3.287c3.178,0.52,6.872,0.188,9.128-0.859l2.257-1.046c5.294-2.464,13.58-2.444,18.842,0.004
		l2.241,1.019c3.186,1.48,8.965,1.48,12.15,0.023l2.249-1.046c5.278-2.456,13.556-2.448,18.851,0.008l2.233,1.015
		c3.178,1.48,8.957,1.488,12.135,0.016l2.296-1.046c5.263-2.437,13.541-2.444,18.819,0.016l2.233,1.015
		c3.209,1.476,8.973,1.476,12.135,0.016l2.296-1.046c5.263-2.437,13.532-2.437,18.823,0l2.265,1.065
		c3.17,1.457,8.964,1.449,12.119-0.023l2.265-1.038c5.278-2.44,13.571-2.44,18.834,0.008l2.233,1.022
		c3.187,1.472,8.965,1.48,12.15,0.008l2.296-1.042c5.248-2.437,13.525-2.433,18.804,0.012l2.233,1.022
		c3.186,1.472,8.964,1.48,12.15,0.008l2.295-1.042c5.248-2.437,13.525-2.433,18.804,0.012l2.249,1.019
		c2.28,1.062,5.95,1.426,9.152,0.867c2.093-0.332,4.232,1.093,4.607,3.275c0.374,2.179-1.094,4.24-3.28,4.611
		c-4.794,0.801-10.089,0.238-13.821-1.487l-2.233-1.02c-3.218-1.483-8.979-1.483-12.135-0.016l-2.296,1.047
		c-5.247,2.436-13.54,2.44-18.835-0.012l-2.233-1.023c-3.201-1.483-8.964-1.479-12.119-0.012l-2.295,1.047
		c-5.248,2.436-13.541,2.44-18.835-0.012l-2.233-1.023c-3.186-1.483-8.965-1.483-12.15-0.008l-2.265,1.039
		c-5.247,2.436-13.54,2.44-18.819,0.012l-2.275-1.066c-3.163-1.456-8.941-1.456-12.12,0.016l-2.288,1.043
		c-5.232,2.444-13.517,2.44-18.811-0.012l-2.241-1.02c-3.194-1.483-8.965-1.487-12.143-0.012l-2.288,1.043
		c-5.255,2.452-13.532,2.452-18.819-0.016l-2.233-1.016c-3.186-1.487-8.956-1.491-12.143-0.02l-2.256,1.051
		c-5.31,2.436-13.587,2.436-18.85-0.016l-2.233-1.016c-3.21-1.491-8.98-1.487-12.143-0.02l-2.257,1.051
		C138.292,231.253,134.912,231.894,131.476,231.894z"/>
	<path style="fill:#3A3847;" d="M131.499,303.855c-0.617,0-1.234-0.023-1.858-0.062c-2.202-0.141-3.874-2.045-3.725-4.248
		c0.148-2.217,2.062-3.771,4.256-3.732c2.788,0.188,5.576-0.219,7.364-1.046l2.257-1.054c5.294-2.46,13.58-2.445,18.842,0.008
		l2.241,1.015c3.186,1.483,8.965,1.476,12.15,0.023l2.249-1.046c5.294-2.46,13.556-2.445,18.851,0.008l2.233,1.015
		c3.178,1.483,8.957,1.483,12.135,0.016l2.296-1.046c5.263-2.438,13.541-2.445,18.819,0.016l2.233,1.015
		c3.209,1.483,8.973,1.468,12.135,0.016l2.296-1.046c5.263-2.438,13.532-2.438,18.823,0l2.265,1.062
		c3.17,1.46,8.964,1.452,12.119-0.016l2.265-1.046c5.278-2.438,13.571-2.438,18.834,0.016l2.233,1.015
		c3.187,1.483,8.965,1.483,12.15,0.016l2.296-1.046c5.248-2.438,13.525-2.438,18.804,0.016l2.233,1.015
		c3.186,1.483,8.964,1.483,12.15,0.016l2.295-1.046c5.248-2.438,13.525-2.438,18.804,0.016l2.249,1.015
		c1.843,0.858,4.623,1.296,7.387,1.077c2.156-0.031,4.107,1.516,4.248,3.725c0.156,2.211-1.515,4.107-3.717,4.256
		c-4.139,0.25-8.215-0.374-11.26-1.796l-2.233-1.015c-3.218-1.484-8.979-1.484-12.135-0.016l-2.296,1.046
		c-5.247,2.437-13.54,2.437-18.835-0.016l-2.233-1.015c-3.201-1.492-8.964-1.484-12.119-0.016l-2.295,1.046
		c-5.248,2.437-13.541,2.437-18.835-0.016l-2.233-1.015c-3.186-1.484-8.965-1.484-12.15-0.016l-2.265,1.046
		c-5.247,2.429-13.54,2.437-18.819,0.008l-2.275-1.069c-3.163-1.453-8.941-1.453-12.12,0.016l-2.288,1.046
		c-5.232,2.437-13.517,2.444-18.811-0.016l-2.241-1.015c-3.194-1.484-8.965-1.484-12.143-0.016l-2.288,1.046
		c-5.255,2.452-13.532,2.452-18.819-0.016l-2.233-1.015c-3.186-1.484-8.956-1.492-12.143-0.016l-2.256,1.046
		c-5.31,2.437-13.587,2.437-18.85-0.016l-2.233-1.015c-3.21-1.492-8.98-1.484-12.143-0.016l-2.257,1.046
		C138.324,303.207,134.974,303.855,131.499,303.855z"/>
	<path style="fill:#3A3847;" d="M251.675,179.931H133.873c-2.209,0-3.998-1.789-3.998-3.998c0-2.21,1.789-3.999,3.998-3.999h117.803
		c2.21,0,3.999,1.789,3.999,3.999C255.674,178.142,253.885,179.931,251.675,179.931z"/>
	<path style="fill:#3A3847;" d="M347.618,147.993c0,0,0,0-0.016,0l-47.945-0.047c-2.218-0.004-3.998-1.792-3.998-4.002
		c0-2.206,1.78-3.994,3.998-3.994l0,0l47.961,0.047c2.202,0.004,3.998,1.792,3.998,4.002
		C351.616,146.205,349.82,147.993,347.618,147.993z"/>
	<path style="fill:#3A3847;" d="M235.683,363.842h-89.051c-2.21,0-3.998-1.788-3.998-3.998s1.788-3.998,3.998-3.998h89.051
		c2.21,0,3.998,1.788,3.998,3.998S237.893,363.842,235.683,363.842z"/>
	<path style="fill:#3A3847;" d="M335.42,387.831h-51.756c-2.217,0-3.998-1.788-3.998-3.998s1.781-3.998,3.998-3.998h51.757
		c2.202,0,3.998,1.788,3.998,3.998S337.623,387.831,335.42,387.831z"/>
	<path style="fill:#3A3847;" d="M382.632,339.854h-19.007c-2.218,0-3.998-1.788-3.998-3.998s1.78-3.998,3.998-3.998h19.007
		c2.202,0,3.998,1.788,3.998,3.998S384.834,339.854,382.632,339.854z"/>
</g>
</svg>
