<svg version="1.1" xmlns="http://www.w3.org/2000/svg" viewBox="-5 -5 525 525">
<g stroke="black" stroke-width="10">
	<path d="M497,240.999c-8.284,0-15,6.716-15,15c0,124.618-101.382,226.002-225.998,226.002
		C131.387,481.999,30.003,380.616,30,256.001c0.003-124.617,101.385-226,225.998-226C311.337,30,363.632,49.767,404.844,85.941
		l-47.091,47.092c-28.561-23.718-64.163-36.632-101.751-36.632c-88.004,0-159.6,71.596-159.6,159.6s71.596,159.6,159.6,159.6
		c88.003,0,159.599-71.596,159.599-159.6c0-8.284-6.716-15-15-15s-15,6.716-15,15c0,71.461-58.138,129.6-129.599,129.6
		c-71.462,0-129.6-58.138-129.6-129.6s58.138-129.6,129.6-129.6c29.564,0,57.615,9.841,80.423,27.961l-47.608,47.609
		c-9.792-5.971-21.058-9.17-32.821-9.169c-34.847,0-63.197,28.351-63.197,63.198c0,34.848,28.352,63.199,63.2,63.199
		c34.848,0,63.2-28.35,63.2-63.197c0-11.761-3.199-23.026-9.17-32.818l126.988-126.99c2.929-2.93,4.393-6.769,4.393-10.608
		c0-3.84-1.464-7.68-4.393-10.609C388.665,26.626,324.378,0,255.998,0.001c-68.378,0-132.665,26.629-181.016,74.98
		C26.63,123.332,0.001,187.621,0,256.001c0.001,68.379,26.631,132.665,74.982,181.017c48.352,48.352,112.639,74.981,181.02,74.982
		c68.379,0,132.665-26.629,181.017-74.981C485.371,388.665,512,324.379,512,255.999C512,247.715,505.284,240.999,497,240.999z
		 M256,289.199c-18.307,0-33.2-14.893-33.2-33.199c0-18.306,14.892-33.198,33.201-33.198c8.866-0.001,17.202,3.451,23.472,9.72
		c0.001,0.001,0.003,0.002,0.004,0.003c0.001,0.001,0.002,0.002,0.003,0.003c6.268,6.27,9.721,14.606,9.721,23.474
		C289.2,274.308,274.307,289.199,256,289.199z"/>
</g>
</svg>
