<svg viewBox="0 0 512 512" xmlns="http://www.w3.org/2000/svg"><g><path d="m275.423 91.704c-.001-10.877-4.669-21.256-12.811-28.477-.987-.875-59.338-52.876-60.205-53.644-6.97-6.179-15.935-9.583-25.244-9.583-10.884 0-21.266 4.668-28.486 12.808-10.516 11.86-12.259 28.509-5.722 41.946-75.994 9.128-135.093 73.988-135.093 152.402 0 84.645 68.864 153.51 153.51 153.51 20.987 0 38.062-17.074 38.062-38.062 0-20.987-17.075-38.061-38.062-38.061-42.671 0-77.387-34.715-77.387-77.387 0-36.653 25.622-67.413 59.889-75.367-7.547 13.724-6.119 31.358 4.802 43.674 7.219 8.14 17.6 12.809 28.482 12.809h.004c9.31 0 18.275-3.403 25.251-9.589 1.405-1.247 4.066-3.816 31.453-30.508 10.842-10.566 27.163-26.474 29.217-28.412 7.847-7.194 12.342-17.412 12.34-28.059z"/><path d="m504.138 304.844c0-84.645-68.864-153.51-153.51-153.51-20.987 0-38.062 17.074-38.062 38.062 0 20.987 17.075 38.061 38.062 38.061 42.671 0 77.387 34.715 77.387 77.387 0 36.653-25.622 67.413-59.889 75.367 7.547-13.724 6.119-31.357-4.802-43.674-7.219-8.14-17.6-12.809-28.486-12.809-9.31 0-18.275 3.403-25.251 9.589-1.405 1.247-4.066 3.816-31.453 30.508-10.842 10.566-27.163 26.474-29.217 28.412-7.846 7.194-12.341 17.412-12.339 28.058.001 10.877 4.669 21.255 12.811 28.477.987.875 59.338 52.875 60.205 53.644 6.97 6.179 15.935 9.583 25.245 9.583 10.884 0 21.266-4.668 28.486-12.808 10.516-11.86 12.259-28.509 5.722-41.946 75.992-9.127 135.091-73.987 135.091-152.401z"/></g></svg>
