<svg version="1.1" xmlns="http://www.w3.org/2000/svg" viewBox="0 0 512.003 512.003">
<g>
	<g>
		<rect x="17.011" y="407.031" width="477.971" height="37.47"/>
	</g>
</g>
<g>
	<g>
		<rect y="474.504" width="512.003" height="37.47"/>
	</g>
</g>
<g>
	<g>
		<polygon points="256,0.029 0,74.791 0,119.954 512,119.954 512,74.791 		"/>
	</g>
</g>
<g>
	<g>
		<path d="M109.18,152.278l-0.645-2.322H44.933v-0.001l-0.645,2.323c-0.363,1.309-8.893,32.951-8.893,111.216
			s8.529,109.908,8.893,111.216l0.645,2.323h63.602l0.645-2.322c0.363-1.309,8.894-32.95,8.894-111.217
			C118.074,185.229,109.544,153.587,109.18,152.278z"/>
	</g>
</g>
<g>
	<g>
		<path d="M228.69,152.278l-0.645-2.323h-63.601v0l-0.645,2.323c-0.363,1.309-8.893,32.951-8.893,111.216
			s8.529,109.908,8.893,111.216l0.645,2.323h63.601l0.645-2.323c0.363-1.309,8.893-32.951,8.893-111.216
			S229.054,153.587,228.69,152.278z"/>
	</g>
</g>
<g>
	<g>
		<path d="M348.201,152.278l-0.645-2.323h-63.601v0l-0.645,2.323c-0.363,1.309-8.893,32.951-8.893,111.216
			s8.529,109.908,8.893,111.216l0.645,2.323h63.601l0.645-2.323c0.363-1.309,8.893-32.951,8.893-111.216
			S348.565,153.587,348.201,152.278z"/>
	</g>
</g>
<g>
	<g>
		<path d="M467.712,152.277l-0.645-2.323h-63.602v0.001l-0.645,2.322c-0.363,1.309-8.894,32.951-8.894,111.216
			c0,78.267,8.53,109.908,8.894,111.217l0.645,2.322h63.602l0.645-2.323c0.363-1.309,8.893-32.951,8.893-111.216
			S468.076,153.586,467.712,152.277z"/>
	</g>
</g>
<g>
</g>
<g>
</g>
<g>
</g>
<g>
</g>
<g>
</g>
<g>
</g>
<g>
</g>
<g>
</g>
<g>
</g>
<g>
</g>
<g>
</g>
<g>
</g>
<g>
</g>
<g>
</g>
<g>
</g>
</svg>
