<svg version="1.1" xmlns="http://www.w3.org/2000/svg" x="0px" y="0px"
	 viewBox="0 0 511.754 511.754" style="enable-background:new 0 0 511.754 511.754;" xml:space="preserve">
<path style="fill:#656D78;" d="M483.674,383.784H451.69c8.832,0,15.992-7.161,15.992-15.992c0-8.832-7.16-15.992-15.992-15.992
	h-31.984c8.831,0,15.992-7.161,15.992-15.992c0-8.832-7.161-15.993-15.992-15.993h-47.978c8.832,0,15.993-7.16,15.993-15.992
	c0-8.831-7.161-15.992-15.993-15.992h87.958c8.832,0,15.992-7.16,15.992-15.992s-7.16-15.992-15.992-15.992h-39.98
	c8.831,0,15.992-7.161,15.992-15.992c0-8.832-7.161-15.992-15.992-15.992h-15.992c8.831,0,15.992-7.161,15.992-15.992
	c0-8.832-7.161-15.993-15.992-15.993h79.961c8.832,0,15.992-7.161,15.992-15.992s-7.16-15.993-15.992-15.993h-31.984
	c8.832,0,15.992-7.16,15.992-15.992s-7.16-15.992-15.992-15.992h-31.984c8.831,0,15.992-7.161,15.992-15.992
	c0-8.832-7.161-15.992-15.992-15.992h-23.99c8.831,0,15.992-7.161,15.992-15.992c0-8.832-7.161-15.993-15.992-15.993H155.832
	c-8.832,0-15.992,7.161-15.992,15.993c0,8.831,7.161,15.992,15.992,15.992H99.858c-8.832,0-15.992,7.16-15.992,15.992
	s7.161,15.992,15.992,15.992H83.866c-8.832,0-15.992,7.161-15.992,15.992c0,8.832,7.16,15.992,15.992,15.992h47.977
	c-8.831,0-15.992,7.161-15.992,15.993s7.161,15.991,15.992,15.991H43.885c-8.832,0-15.992,7.161-15.992,15.993
	c0,8.831,7.161,15.992,15.992,15.992h39.981c-8.832,0-15.992,7.16-15.992,15.992s7.16,15.992,15.992,15.992H43.885
	c-8.832,0-15.992,7.16-15.992,15.992s7.161,15.992,15.992,15.992H27.893c-8.832,0-15.993,7.161-15.993,15.992
	c0,8.832,7.161,15.992,15.993,15.992h39.981c-8.832,0-15.992,7.161-15.992,15.993c0,8.831,7.16,15.992,15.992,15.992H51.882
	c-8.832,0-15.993,7.16-15.993,15.992c0,8.831,7.161,15.992,15.993,15.992h79.961c-8.831,0-15.992,7.161-15.992,15.992
	c0,8.832,7.161,15.992,15.992,15.992H99.858c-8.832,0-15.992,7.161-15.992,15.993c0,8.831,7.161,15.992,15.992,15.992h271.869
	c8.832,0,15.993-7.161,15.993-15.992c0-8.832-7.161-15.993-15.993-15.993h111.946c8.832,0,15.992-7.16,15.992-15.992
	C499.666,390.945,492.506,383.784,483.674,383.784z"/>
<path style="fill:#5D9CEC;" d="M403.713,255.846c0,81.695-66.227,147.929-147.93,147.929s-147.929-66.233-147.929-147.929
	c0-81.699,66.226-147.929,147.929-147.929C337.486,107.917,403.713,174.147,403.713,255.846z"/>
<path style="fill:#A0D468;" d="M332.465,218.024c-3.834,5.196,5.521,22.31,34.625,20.068c9.198-0.719-10.238,31.426-16.07,41.585
	c-7.278,12.635-5.436,27.581-12.314,40.137c-4.318,7.919-11.675,13.838-17.516,20.631c-7.277,8.395-15.43,16.633-27.58,15.587
	c-8.082-0.719-11.362-9.589-12.955-15.907c-3.92-15.75-2.241-32.07-6.56-47.898c-5.2-18.624-21.106-16.789-36.865-16.953
	c-19.03-0.234-30.782-12.393-31.5-31.184c-1.765-46.454,37.341-51.335,41.816-50.534c6.481,1.198,25.511,4.478,30.306,7.117
	c16.234,8.875,32.788-3.439,31.508-9.917c-1.358-6.556-41.582-15.91-55.817-16.949c-5.115-0.32-15.594,4.076-19.506-0.242
	c-3.202-3.44-0.242-8.957,1.999-11.912c15.75-20.713,41.98-25.75,64.125-36.545c0.719-0.32,6.318-3.12,7.677-7.754
	c39.185,14.712,70.45,45.576,85.638,84.44c-6.473,0.796-20.311,9.913-20.708,12.872
	C370.689,230.897,339.103,208.989,332.465,218.024z"/>
<g style="opacity:0.5;">
	<path style="fill:#FFFFFF;" d="M288.65,340.125c-3.92-15.75-2.241-32.07-6.559-47.898c-5.201-18.624-20.709-22.887-36.468-23.051
		c-19.029-0.242-31.18-6.295-31.898-25.086c-1.429-37.65,23.98-47.985,36.045-50.128c-0.804-0.148-1.616-0.292-2.225-0.406
		c-4.475-0.801-43.581,4.08-41.816,50.534c0.718,18.791,12.471,30.949,31.5,31.184c15.758,0.164,31.665-1.671,36.865,16.953
		c4.318,15.828,2.64,32.148,6.56,47.898c1.593,6.318,4.873,15.188,12.955,15.907c2.225,0.195,4.271-0.016,6.247-0.391
		C293.078,353.869,290.119,345.951,288.65,340.125z"/>
	<path style="fill:#FFFFFF;" d="M244.523,174.994c-0.961-0.297-1.843-0.711-2.491-1.429c-3.201-3.44-0.632-9.3,1.999-11.912
		c20.084-19.92,39.918-23.95,62.064-34.745c0.554-0.246,6.074-3.792,8.246-6.708c-2.172-0.938-4.279-2.011-6.505-2.847
		c-1.358,4.635-6.958,7.434-7.677,7.754c-22.145,10.795-48.375,15.832-64.125,36.545c-2.241,2.956-5.201,8.472-1.999,11.912
		C236.199,175.95,240.361,175.662,244.523,174.994z"/>
	<path style="fill:#FFFFFF;" d="M367.73,238.202c-0.219-0.031-0.374-0.129-0.64-0.109c-0.344,0.027-0.648,0.016-0.992,0.039
		C366.629,238.167,367.184,238.179,367.73,238.202z"/>
</g>
<path style="fill:#ED5565;" d="M155.356,284.707c7.754,11.275,15.906,26.792,11.752,40.949c-1.757,6.075-5.755,10.947-10.479,15.023
	c-1.116,0.969-13.033,9.995-14.313,9.995h-0.078c-21.427-25.659-34.382-58.769-34.382-94.829c0-10.155,1.039-20.068,3.038-29.665
	c8.074,4.478,25.269,32.383,29.743,38.622C145.36,271.439,150.717,277.913,155.356,284.707z"/>
<g style="opacity:0.3;">
	<path style="fill:#FFFFFF;" d="M139.839,255.846c0-76.292,57.761-139.054,131.936-147.031c-5.255-0.566-10.588-0.898-15.992-0.898
		c-81.703,0-147.929,66.229-147.929,147.929c0,81.695,66.226,147.929,147.929,147.929c5.404,0,10.737-0.327,15.992-0.897
		C197.601,394.904,139.839,332.137,139.839,255.846z"/>
</g>
<g style="opacity:0.2;">
	<path d="M371.728,255.846c0,76.291-57.761,139.059-131.937,147.031c5.255,0.57,10.589,0.897,15.992,0.897
		c81.703,0,147.93-66.233,147.93-147.929c0-81.699-66.227-147.929-147.93-147.929c-5.403,0-10.737,0.332-15.992,0.898
		C313.967,116.792,371.728,179.554,371.728,255.846z"/>
</g>
<g>
	<path style="fill:#3A3847;" d="M255.783,407.788c-83.772,0-151.927-68.154-151.927-151.927s68.155-151.927,151.927-151.927
		s151.928,68.154,151.928,151.927S339.556,407.788,255.783,407.788z M255.783,111.931c-79.36,0-143.931,64.566-143.931,143.931
		c0,79.368,64.571,143.931,143.931,143.931s143.932-64.562,143.932-143.931C399.715,176.497,335.144,111.931,255.783,111.931z"/>
	<path style="fill:#3A3847;" d="M295.671,360.124c-0.797,0-1.601-0.039-2.421-0.109c-7.988-0.703-13.533-7.067-16.477-18.929
		c-1.944-7.871-2.562-15.859-3.154-23.598c-0.641-8.402-1.25-16.336-3.421-24.176c-3.693-13.354-13.321-14.033-28.729-14.041
		l-4.302-0.016c-21.052-0.241-34.632-13.657-35.428-35.006c-0.875-23.333,8.309-36.377,16.164-43.21
		c11.408-9.929,26.112-12.135,30.36-11.389l1.335,0.238c13.057,2.327,25.746,4.822,30.188,7.27
		c9.895,5.45,18.414,1.058,20.803-0.414c3.693-2.288,4.826-4.669,4.803-5.235c-3.131-3.842-36.99-12.588-52.147-13.685
		c-1.25-0.098-3.428,0.312-5.552,0.695c-5.591,1.003-12.556,2.257-16.632-2.245c-3.749-4.115-3.077-10.631,1.757-16.996
		c12.158-16.023,30.009-23.098,47.281-29.939c6.13-2.432,12.479-4.942,18.351-7.801c1.624-0.792,4.889-2.92,5.583-5.29
		c0.617-2.112,2.812-3.346,4.959-2.714c2.116,0.621,3.334,2.843,2.71,4.963c-1.733,5.923-7.902,9.327-9.745,10.229
		c-6.153,2.991-12.643,5.56-18.913,8.047c-16.992,6.734-33.047,13.095-43.854,27.338c-1.874,2.472-3.217,5.681-2.21,6.786
		c1.117,1.218,6.435,0.27,9.292-0.25c2.733-0.492,5.341-0.968,7.543-0.797c4.373,0.316,57.074,8.363,59.425,20.124
		c0.82,4.08-1.702,8.73-6.755,12.431c-6.691,4.9-18.702,8.309-30.556,1.753c-3.904-2.147-21.841-5.349-27.736-6.399l-1.335-0.238
		c-1.468-0.184-14.118,0.784-24.34,10.116c-9.082,8.273-13.377,20.49-12.783,36.314c0.625,16.906,10.917,27.119,27.526,27.307
		l4.208,0.016c14.501,0.008,30.931,0.016,36.437,19.897c2.373,8.597,3.045,17.296,3.686,25.706
		c0.593,7.746,1.155,15.07,2.943,22.286c2.03,8.184,5.193,12.518,9.402,12.885c10.377,0.843,17.343-6.231,24.23-14.228
		c1.944-2.265,4.061-4.443,6.191-6.622c4.209-4.326,8.184-8.402,10.847-13.259c3.069-5.607,4.248-11.854,5.489-18.461
		c1.367-7.246,2.78-14.742,6.833-21.755l1.546-2.671c9.996-17.155,15.485-28.173,16.367-32.839
		c-20.029,0.995-31.516-6.774-35.834-14.54c-2.468-4.451-2.601-8.938-0.352-12.006c4.568-6.216,14.017-3.689,23.146-1.25
		c5.513,1.476,13.095,3.506,15.477,1.878c0.188-0.125,0.75-0.5,0.961-2.132c0.804-6.11,17.827-15.516,24.152-16.344
		c2.124-0.277,4.201,1.242,4.489,3.444c0.281,2.187-1.257,4.197-3.443,4.482c-5.005,0.66-15.469,7.543-17.351,10.011
		c-0.664,3.951-2.71,6.083-4.35,7.18c-5.442,3.647-13.478,1.488-22.005-0.796c-4.646-1.242-13.275-3.565-14.634-1.738
		c-0.141,0.308-0.109,1.995,1.468,4.298c3.67,5.365,13.354,10.663,29.635,9.414c2.451-0.211,4.521,0.796,5.716,2.698
		c3.178,5.072-0.844,15.34-16.531,42.268l-1.538,2.64c-3.365,5.833-4.592,12.338-5.888,19.233
		c-1.312,6.941-2.663,14.11-6.341,20.826c-3.187,5.81-7.738,10.479-12.135,14.992c-2.007,2.062-4.014,4.107-5.849,6.263
		C317.059,351.362,308.391,360.124,295.671,360.124z"/>
	<path style="fill:#3A3847;" d="M142.158,354.713c-0.055,0-0.102,0-0.156-0.008c-1.069-0.086-2.131-0.625-2.818-1.453
		c-1.414-1.702-1.188-4.217,0.507-5.638c0.531-0.438,1.14-0.719,1.772-0.844c2.483-1.397,11.346-8.09,12.557-9.128
		c4.873-4.131,7.895-8.418,9.277-13.111c2.905-9.886-0.883-22.521-11.26-37.575c-2.616-3.796-5.443-7.521-8.262-11.237
		c-2.171-2.857-4.334-5.708-6.396-8.582c-0.921-1.288-2.381-3.494-4.201-6.234c-5.599-8.449-18.718-28.245-24.231-31.208
		c-1.944-1.046-2.678-3.471-1.632-5.416c1.039-1.948,3.467-2.667,5.412-1.628c6.723,3.615,17.085,18.698,27.12,33.835
		c1.741,2.631,3.147,4.756,4.029,5.985c2.022,2.823,4.146,5.618,6.27,8.414c2.897,3.818,5.794,7.637,8.473,11.541
		c11.979,17.366,16.016,31.875,12.346,44.354c-1.804,6.153-5.755,11.854-11.744,16.93
		C159.127,343.796,146.148,354.713,142.158,354.713z"/>
</g>

<g>
<path style="fill:#CCD1D9;" d="M378.64,326.593c-23.747-26.12-49.984-53.825-78.033-82.214c-5.544-5.767-11.197-11.42-16.961-17.187
	c-34.374-34.378-68.014-66.433-99.339-94.931C90.392,47.056,16.833-6.493,5.073,5.267c-10.967,10.968,36.408,77.459,111.95,162.387
	l11.588,11.588c4.014-6.727,8.542-12.947,13.517-18.827l-0.457-0.34l-10.229-10.229c-28.217-32.855-59.936-62.989-56.371-66.554
	c7.067-7.067,102.283,68.811,193.028,159.45c5.653,5.654,11.252,11.362,16.906,17.016
	c83.904,85.381,157.189,169.402,150.568,176.017c-3.562,3.562-41.387-27.932-73.785-55.691l-11.307-11.315
	c-5.881,4.975-12.096,9.504-18.827,13.518l11.588,11.588c84.928,75.542,151.364,122.863,162.328,111.899
	C517.339,494.012,463.849,420.509,378.64,326.593z"/>
	<g style="opacity:0.2;">
	<path d="M350.482,368.768c-5.881,4.975-12.096,9.504-18.827,13.518l8.573,8.574c6.56-4.115,12.822-8.637,18.694-13.643
		L350.482,368.768z"/>
		<path d="M128.612,179.242c4.014-6.727,8.542-12.947,13.517-18.827l-0.457-0.34l-8.102-8.102c-4.981,5.853-9.483,12.1-13.591,18.636
		L128.612,179.242z"/>
</g>
	<g style="opacity:0.7;">
	<path style="fill:#FFFFFF;" d="M178.681,137.914c31.321,28.494,64.961,60.553,99.335,94.931
		c5.763,5.767,11.417,11.42,16.961,17.188c28.049,28.389,54.286,56.094,78.032,82.214
		c78.268,86.264,129.719,155.254,128.485,175.057c1.757-0.102,3.155-0.586,4.1-1.53c11.768-11.761-41.722-85.264-126.931-179.18
		c-23.747-26.12-49.984-53.825-78.033-82.214c-5.544-5.767-11.197-11.42-16.961-17.187c-34.366-34.378-68.014-66.437-99.335-94.931
		C90.415,47.056,16.857-6.493,5.097,5.267C4.148,6.216,3.663,7.61,3.57,9.374C23.373,8.145,92.418,59.651,178.681,137.914z"/>
</g>
	<path style="fill:#3A3847;" d="M15.693,19.623c-2.206,0-4.037-1.788-4.037-3.998s1.75-3.998,3.959-3.998h0.078
		c2.21,0,3.998,1.788,3.998,3.998S17.903,19.623,15.693,19.623z"/>
		<path style="fill:#3A3847;" d="M31.685,35.616c-2.206,0-4.037-1.788-4.037-3.998s1.749-3.998,3.959-3.998h0.078
		c2.209,0,3.998,1.788,3.998,3.998S33.895,35.616,31.685,35.616z"/>
		<path style="fill:#3A3847;" d="M47.678,51.608c-2.206,0-4.037-1.788-4.037-3.998c0-2.209,1.75-3.998,3.959-3.998h0.078
		c2.21,0,3.998,1.789,3.998,3.998C51.676,49.82,49.888,51.608,47.678,51.608z"/>
		<path style="fill:#3A3847;" d="M79.663,51.608c-2.206,0-4.037-1.788-4.037-3.998c0-2.209,1.749-3.998,3.959-3.998h0.078
		c2.21,0,3.998,1.789,3.998,3.998C83.661,49.82,81.872,51.608,79.663,51.608z"/>
		<path style="fill:#3A3847;" d="M63.67,67.6c-2.206,0-4.037-1.789-4.037-3.998c0-2.21,1.749-3.998,3.959-3.998h0.078
		c2.209,0,3.998,1.788,3.998,3.998C67.668,65.812,65.88,67.6,63.67,67.6z"/>
		<path style="fill:#3A3847;" d="M47.678,83.593c-2.206,0-4.037-1.788-4.037-3.998c0-2.209,1.75-3.998,3.959-3.998h0.078
		c2.21,0,3.998,1.789,3.998,3.998C51.676,81.805,49.888,83.593,47.678,83.593z"/>
		<path style="fill:#3A3847;" d="M95.655,67.6c-2.206,0-4.037-1.789-4.037-3.998c0-2.21,1.749-3.998,3.959-3.998h0.078
		c2.21,0,3.998,1.788,3.998,3.998C99.653,65.812,97.865,67.6,95.655,67.6z"/>
		<path style="fill:#3A3847;" d="M79.663,83.593c-2.206,0-4.037-1.788-4.037-3.998c0-2.209,1.749-3.998,3.959-3.998h0.078
		c2.21,0,3.998,1.789,3.998,3.998C83.661,81.805,81.872,83.593,79.663,83.593z"/>
		<path style="fill:#3A3847;" d="M63.67,99.585c-2.206,0-4.037-1.789-4.037-3.998c0-2.21,1.749-3.998,3.959-3.998h0.078
		c2.209,0,3.998,1.788,3.998,3.998C67.668,97.797,65.88,99.585,63.67,99.585z"/>
		<path style="fill:#3A3847;" d="M111.647,83.593c-2.206,0-4.037-1.788-4.037-3.998c0-2.209,1.749-3.998,3.959-3.998h0.078
		c2.21,0,3.998,1.789,3.998,3.998C115.645,81.805,113.857,83.593,111.647,83.593z"/>
		<path style="fill:#3A3847;" d="M79.663,115.578c-2.206,0-4.037-1.788-4.037-3.998s1.749-3.998,3.959-3.998h0.078
		c2.21,0,3.998,1.788,3.998,3.998S81.872,115.578,79.663,115.578z"/>
		<path style="fill:#3A3847;" d="M127.639,99.585c-2.206,0-4.037-1.789-4.037-3.998c0-2.21,1.749-3.998,3.959-3.998h0.078
		c2.21,0,3.998,1.788,3.998,3.998S129.849,99.585,127.639,99.585z"/>
		<path style="fill:#3A3847;" d="M95.655,131.57c-2.206,0-4.037-1.788-4.037-3.998c0-2.21,1.749-3.998,3.959-3.998h0.078
		c2.21,0,3.998,1.788,3.998,3.998C99.653,129.782,97.865,131.57,95.655,131.57z"/>
		<path style="fill:#3A3847;" d="M143.631,115.578c-2.206,0-4.037-1.788-4.037-3.998s1.75-3.998,3.959-3.998h0.078
		c2.21,0,3.998,1.788,3.998,3.998S145.841,115.578,143.631,115.578z"/>
		<path style="fill:#3A3847;" d="M111.647,147.562c-2.206,0-4.037-1.788-4.037-3.998s1.749-3.998,3.959-3.998h0.078
		c2.21,0,3.998,1.788,3.998,3.998S113.857,147.562,111.647,147.562z"/>
		<path style="fill:#3A3847;" d="M159.624,131.57c-2.206,0-4.037-1.788-4.037-3.998c0-2.21,1.749-3.998,3.959-3.998h0.078
		c2.209,0,3.998,1.788,3.998,3.998C163.622,129.782,161.833,131.57,159.624,131.57z"/>
		<path style="fill:#3A3847;" d="M175.616,147.562c-2.206,0-4.037-1.788-4.037-3.998s1.75-3.998,3.959-3.998h0.078
		c2.21,0,3.998,1.788,3.998,3.998S177.826,147.562,175.616,147.562z"/>
		<path style="fill:#3A3847;" d="M191.609,163.554c-2.206,0-4.037-1.788-4.037-3.998s1.749-3.998,3.959-3.998h0.078
		c2.209,0,3.998,1.788,3.998,3.998S193.818,163.554,191.609,163.554z"/>
		<path style="fill:#3A3847;" d="M207.601,179.547c-2.206,0-4.037-1.789-4.037-3.999c0-2.209,1.749-3.998,3.959-3.998h0.078
		c2.21,0,3.998,1.789,3.998,3.998C211.599,177.758,209.811,179.547,207.601,179.547z"/>
		<path style="fill:#3A3847;" d="M223.593,195.539c-2.206,0-4.037-1.788-4.037-3.998s1.749-3.998,3.959-3.998h0.078
		c2.21,0,3.998,1.788,3.998,3.998S225.803,195.539,223.593,195.539z"/>
		<path style="fill:#3A3847;" d="M239.585,211.532c-2.206,0-4.037-1.789-4.037-3.999c0-2.209,1.749-3.998,3.959-3.998h0.078
		c2.21,0,3.998,1.789,3.998,3.998C243.583,209.743,241.795,211.532,239.585,211.532z"/>
		<path style="fill:#3A3847;" d="M255.578,227.524c-2.206,0-4.037-1.788-4.037-3.998s1.749-3.998,3.959-3.998h0.078
		c2.21,0,3.998,1.788,3.998,3.998S257.788,227.524,255.578,227.524z"/>
		<path style="fill:#3A3847;" d="M271.574,243.516c-2.209,0-4.037-1.788-4.037-3.998s1.75-3.998,3.951-3.998h0.086
		c2.202,0,3.998,1.788,3.998,3.998S273.776,243.516,271.574,243.516z"/>
		<path style="fill:#3A3847;" d="M287.566,259.508c-2.209,0-4.037-1.788-4.037-3.998c0-2.21,1.75-3.998,3.951-3.998h0.086
		c2.203,0,3.998,1.788,3.998,3.998S289.769,259.508,287.566,259.508z"/>
		<path style="fill:#3A3847;" d="M303.558,275.5c-2.209,0-4.037-1.788-4.037-3.998s1.75-3.998,3.952-3.998h0.085
		c2.203,0,3.999,1.788,3.999,3.998S305.761,275.5,303.558,275.5z"/>
		<path style="fill:#3A3847;" d="M319.551,291.493c-2.21,0-4.037-1.788-4.037-3.998s1.749-3.998,3.951-3.998h0.086
		c2.202,0,3.998,1.788,3.998,3.998S321.753,291.493,319.551,291.493z"/>
		<path style="fill:#3A3847;" d="M335.543,307.485c-2.21,0-4.037-1.788-4.037-3.998c0-2.209,1.749-3.998,3.951-3.998h0.086
		c2.202,0,3.998,1.789,3.998,3.998C339.541,305.697,337.746,307.485,335.543,307.485z"/>
		<path style="fill:#3A3847;" d="M351.536,323.477c-2.21,0-4.037-1.787-4.037-3.998c0-2.209,1.749-3.998,3.951-3.998h0.086
		c2.202,0,3.998,1.789,3.998,3.998C355.534,321.69,353.738,323.477,351.536,323.477z"/>
		<path style="fill:#3A3847;" d="M367.528,339.47c-2.21,0-4.037-1.788-4.037-3.998s1.749-3.999,3.951-3.999h0.086
		c2.202,0,3.998,1.789,3.998,3.999S369.73,339.47,367.528,339.47z"/>
		<path style="fill:#3A3847;" d="M383.52,355.462c-2.21,0-4.037-1.788-4.037-3.998s1.749-3.998,3.951-3.998h0.086
		c2.202,0,3.998,1.788,3.998,3.998S385.722,355.462,383.52,355.462z"/>
		<path style="fill:#3A3847;" d="M399.512,371.454c-2.21,0-4.037-1.788-4.037-3.998s1.749-3.998,3.952-3.998h0.085
		c2.202,0,3.999,1.788,3.999,3.998S401.714,371.454,399.512,371.454z"/>
		<path style="fill:#3A3847;" d="M367.528,403.439c-2.21,0-4.037-1.788-4.037-3.998s1.749-3.998,3.951-3.998h0.086
		c2.202,0,3.998,1.788,3.998,3.998S369.73,403.439,367.528,403.439z"/>
		<path style="fill:#3A3847;" d="M415.505,387.447c-2.211,0-4.037-1.788-4.037-3.998s1.748-3.998,3.951-3.998h0.086
		c2.201,0,3.998,1.788,3.998,3.998S417.706,387.447,415.505,387.447z"/>
		<path style="fill:#3A3847;" d="M383.52,419.431c-2.21,0-4.037-1.788-4.037-3.998s1.749-3.998,3.951-3.998h0.086
		c2.202,0,3.998,1.788,3.998,3.998S385.722,419.431,383.52,419.431z"/>
		<path style="fill:#3A3847;" d="M431.497,403.439c-2.21,0-4.037-1.788-4.037-3.998s1.749-3.998,3.951-3.998h0.086
		c2.201,0,3.998,1.788,3.998,3.998S433.699,403.439,431.497,403.439z"/>
		<path style="fill:#3A3847;" d="M399.512,435.424c-2.21,0-4.037-1.789-4.037-3.998c0-2.211,1.749-3.998,3.952-3.998h0.085
		c2.202,0,3.999,1.787,3.999,3.998C403.511,433.635,401.714,435.424,399.512,435.424z"/>
		<path style="fill:#3A3847;" d="M447.49,419.431c-2.21,0-4.037-1.788-4.037-3.998s1.749-3.998,3.951-3.998h0.086
		c2.202,0,3.998,1.788,3.998,3.998S449.692,419.431,447.49,419.431z"/>
		<path style="fill:#3A3847;" d="M415.505,451.416c-2.211,0-4.037-1.789-4.037-3.998c0-2.21,1.748-3.998,3.951-3.998h0.086
		c2.201,0,3.998,1.788,3.998,3.998C419.503,449.627,417.706,451.416,415.505,451.416z"/>
		<path style="fill:#3A3847;" d="M463.482,435.424c-2.21,0-4.037-1.789-4.037-3.998c0-2.211,1.749-3.998,3.951-3.998h0.086
		c2.202,0,3.998,1.787,3.998,3.998C467.48,433.635,465.684,435.424,463.482,435.424z"/>
		<path style="fill:#3A3847;" d="M447.49,451.416c-2.21,0-4.037-1.789-4.037-3.998c0-2.21,1.749-3.998,3.951-3.998h0.086
		c2.202,0,3.998,1.788,3.998,3.998C451.488,449.627,449.692,451.416,447.49,451.416z"/>
		<path style="fill:#3A3847;" d="M431.497,467.409c-2.21,0-4.037-1.789-4.037-3.998c0-2.21,1.749-3.998,3.951-3.998h0.086
		c2.201,0,3.998,1.788,3.998,3.998C435.496,465.62,433.699,467.409,431.497,467.409z"/>
		<path style="fill:#3A3847;" d="M463.482,467.409c-2.21,0-4.037-1.789-4.037-3.998c0-2.21,1.749-3.998,3.951-3.998h0.086
		c2.202,0,3.998,1.788,3.998,3.998C467.48,465.62,465.684,467.409,463.482,467.409z"/>
		<path style="fill:#3A3847;" d="M479.474,483.401c-2.21,0-4.037-1.788-4.037-3.998s1.749-3.998,3.951-3.998h0.086
		c2.202,0,3.998,1.788,3.998,3.998S481.676,483.401,479.474,483.401z"/>
		<path style="fill:#3A3847;" d="M495.466,499.393c-2.21,0-4.037-1.788-4.037-3.998s1.749-3.998,3.951-3.998h0.086
		c2.202,0,3.998,1.788,3.998,3.998S497.668,499.393,495.466,499.393z"/>
		<path style="fill:#3A3847;" d="M255.339,407.437c-83.772,0-151.927-68.154-151.927-151.927c0-39.758,15.266-77.361,42.987-105.887
		c1.538-1.577,4.068-1.624,5.653-0.078c1.582,1.539,1.616,4.068,0.078,5.653c-26.261,27.022-40.723,62.646-40.723,100.312
		c0,79.368,64.567,143.931,143.931,143.931c37.678,0,73.309-14.462,100.319-40.723c1.585-1.538,4.123-1.499,5.653,0.078
		c1.539,1.585,1.508,4.115-0.078,5.653C332.716,392.171,295.11,407.437,255.339,407.437z"/>
		<path style="fill:#3A3847;" d="M390.447,319.854c-0.547,0-1.102-0.109-1.632-0.344c-2.015-0.905-2.921-3.271-2.015-5.286
		c8.277-18.507,12.471-38.255,12.471-58.714c0-79.364-64.571-143.931-143.932-143.931c-20.435,0-40.188,4.201-58.714,12.482
		c-2.026,0.909-4.38-0.012-5.282-2.019c-0.902-2.015,0.004-4.381,2.019-5.283c19.557-8.742,40.41-13.177,61.978-13.177
		c83.772,0,151.928,68.154,151.928,151.927c0,21.591-4.428,42.44-13.174,61.979C393.429,318.98,391.969,319.854,390.447,319.854z"/>
		<path style="fill:#3A3847;" d="M501.737,510.856c-15.103,0-55.364-19.928-161.173-114.039c-1.655-1.468-1.796-3.998-0.336-5.646
		c1.484-1.647,4.006-1.804,5.646-0.327c103.739,92.26,151.31,117.717,156.908,112.094c10.636-10.643-68.646-119.622-221.939-272.916
		C127.557,76.752,18.598-2.585,7.912,8.082c-5.606,5.614,19.869,53.173,112.106,156.893c1.468,1.648,1.319,4.174-0.332,5.642
		s-4.178,1.319-5.642-0.332C-0.475,41.515-5.149,9.847,2.254,2.429c22.849-22.774,182.498,120.208,284.242,221.94
		c101.725,101.732,244.78,261.375,221.94,284.224C507.117,509.919,505.017,510.856,501.737,510.856z"/>
		<path style="fill:#3A3847;" d="M435.113,440.273c-5.475,0-20.061-9.245-75.925-57.168c-1.679-1.437-1.874-3.959-0.437-5.638
		c1.452-1.671,3.982-1.866,5.638-0.43c40.379,34.632,58.026,47.883,65.655,52.615c-12.119-21.739-78.915-98.195-164.771-184.06
		C181.801,162.129,104.97,100.885,82.196,88.934c4.845,6.146,13.99,16.043,22.337,25.078c9.269,10.034,19.776,21.403,29.9,33.187
		c1.437,1.675,1.245,4.197-0.43,5.638c-1.667,1.441-4.189,1.25-5.638-0.429c-10.03-11.674-20.482-22.985-29.705-32.969
		C73.25,91.937,67.437,85.26,72.274,80.434c13.048-13.021,134.38,95.243,198.651,159.506c44.275,44.283,88.23,90.964,120.59,128.07
		c54.724,62.76,50.21,67.281,46.907,70.576C437.565,439.454,436.737,440.273,435.113,440.273z"/>
</g>
</svg>
