<svg enable-background="new 0 0 511.908 511.908" height="512" viewBox="0 0 511.908 511.908" width="512"
     xmlns="http://www.w3.org/2000/svg">
    <g >
        <g>
            <path fill="white" d="m446.334 131.896c.456-4.374-1.999-8.532-6.049-10.246-9.281-3.928-19.108-6.084-28.975-6.511 2.315-3.065 4.432-6.299 6.317-9.694 12.814-23.084 13.93-51.236 2.981-75.307-1.82-4.003-6.046-6.347-10.402-5.775-26.22 3.438-49.523 19.272-62.338 42.357-2.484 4.474-4.522 9.14-6.124 13.928-7.651-9.991-17.532-18.287-29.03-24.036-3.931-1.965-8.688-1.134-11.72 2.055-18.219 19.165-26.374 46.134-21.814 72.14.006.036.014.072.021.108-2.934-1.287-5.954-2.411-9.049-3.356-4.206-1.283-8.758.331-11.214 3.978-3.463 5.141-6.296 10.618-8.502 16.306-.635-.234-1.296-.414-1.985-.516-2.627-.392-5.26-.65-7.89-.789 13.614-17.852 19.66-40.771 16.304-63.247-.649-4.35-4.064-7.764-8.414-8.414-16.44-2.456-33.119.119-47.879 7.006.642-4.155.976-8.376.976-12.631 0-26.403-12.689-51.558-33.944-67.29-3.535-2.616-8.364-2.616-11.898 0-21.254 15.731-33.944 40.887-33.944 67.29 0 4.254.334 8.475.976 12.631-14.76-6.886-31.438-9.461-47.879-7.006-4.35.649-7.764 4.064-8.414 8.414-3.356 22.476 2.689 45.395 16.304 63.247-2.63.139-5.263.397-7.89.789-4.35.649-7.764 4.064-8.414 8.414-3.356 22.477 2.69 45.396 16.304 63.248-2.631.139-5.264.396-7.891.789-4.35.649-7.764 4.064-8.414 8.413-3.356 22.477 2.689 45.396 16.304 63.248-2.63.138-5.263.396-7.89.789-4.35.649-7.764 4.064-8.414 8.413-1.283 8.586-1.229 17.284.157 25.852.882 5.452 6.021 9.155 11.469 8.274 5.452-.882 9.157-6.017 8.274-11.469-.643-3.971-.909-7.979-.8-11.982 17.479-.514 34.181 6.061 46.754 18.633 12.574 12.573 19.155 29.283 18.633 46.754-4.105.116-8.221-.171-12.293-.851-5.452-.909-10.601 2.771-11.51 8.218-.909 5.448 2.771 10.601 8.218 11.51 4.585.765 9.208 1.147 13.833 1.147.825 0 1.649-.021 2.474-.046v105.228c0 5.523 4.477 10 10 10s10-4.477 10-10v-105.24c.773.021 1.546.042 2.319.042 20.55 0 40.633-7.599 56.022-21.386 11.799 6.031 25.038 9.212 38.339 9.212.16 0 .32-.01.479-.011-5.382 38.768-8.114 78.027-8.114 117.381 0 5.523 4.478 10 10 10s10-4.477 10-10c0-39.01 2.656-77.527 7.932-115.454 13.841 9.396 30.321 14.551 47.183 14.551 2.399 0 4.808-.104 7.216-.315 26.301-2.307 50.251-17.145 64.066-39.692 2.298-3.75 1.876-8.561-1.039-11.854-8.782-9.919-19.733-17.489-31.782-22.285 17.738-11.336 30.847-29.17 36.148-49.867 1.091-4.26-.729-8.733-4.484-11.021-4.237-2.582-8.669-4.759-13.233-6.526 17.837-12.525 30.362-31.774 34.348-53.502.793-4.325-1.332-8.661-5.236-10.684-3.132-1.623-6.35-3.028-9.628-4.229 19.087-13.86 31.674-35.446 34.145-59.133zm-295.403 172.368c-17.475.53-34.191-6.057-46.766-18.633-12.576-12.576-19.158-29.291-18.633-46.766 17.478-.532 34.191 6.058 46.766 18.632 12.576 12.576 19.158 29.291 18.633 46.767zm0-72.451c-17.475.531-34.191-6.057-46.766-18.633-12.576-12.576-19.158-29.29-18.632-46.766 17.478-.53 34.191 6.058 46.766 18.633 12.575 12.577 19.157 29.291 18.632 46.766zm0-72.449c-17.475.532-34.191-6.057-46.766-18.633-12.576-12.576-19.158-29.29-18.633-46.766 17.478-.529 34.191 6.057 46.766 18.633 12.576 12.576 19.158 29.29 18.633 46.766zm10.723-43.868c-12.728-11.985-19.893-28.458-19.893-46.244s7.165-34.258 19.893-46.244c12.729 11.985 19.894 28.458 19.894 46.244s-7.166 34.258-19.894 46.244zm57.488 242.585c-12.576 12.576-29.284 19.157-46.766 18.633-.525-17.475 6.057-34.189 18.633-46.766 12.576-12.576 29.285-19.163 46.766-18.633.526 17.476-6.056 34.19-18.633 46.766zm0-72.45c-12.576 12.577-29.284 19.165-46.766 18.633-.525-17.476 6.057-34.19 18.632-46.766 12.577-12.576 29.3-19.161 46.767-18.632.526 17.474-6.056 34.189-18.633 46.765zm0-72.45c-12.576 12.576-29.284 19.16-46.766 18.633-.525-17.475 6.057-34.189 18.633-46.766 12.576-12.576 29.285-19.16 46.766-18.633.526 17.476-6.056 34.19-18.633 46.766zm0-72.45c-12.576 12.577-29.284 19.168-46.766 18.633-.525-17.476 6.057-34.19 18.633-46.766s29.285-19.165 46.766-18.633c.526 17.476-6.056 34.19-18.633 46.766zm146.212-64.304c8.632-15.55 22.892-26.475 39.838-30.776 5.312 16.657 3.58 34.537-5.052 50.087-8.633 15.55-22.893 26.475-39.839 30.776-5.31-16.658-3.578-34.537 5.053-50.087zm-54.866 1.942c14.607 9.608 24.509 24.596 27.58 42.114 3.071 17.519-1.142 34.981-11.609 48.985-14.607-9.608-24.509-24.596-27.58-42.114-3.071-17.519 1.141-34.981 11.609-48.985zm-44.243 286.137c-7.774-.251-15.476-1.926-22.629-4.899 6.869-10.295 11.379-22.007 13.217-34.208 7.329 11.671 10.629 25.277 9.412 39.107zm15.651-58.192c-14.04-5.061-25.764-14.823-33.289-27.742 7.802-15.363 10.852-33 8.256-50.382-.055-.371-.138-.731-.232-1.087 10.977 6.699 19.708 16.644 25.035 28.876 7.101 16.303 7.111 34.265.23 50.335zm-13.54-107.205c-5.885-16.589-4.662-34.323 3.226-49.72 15.828 6.985 27.952 19.984 33.837 36.573s4.662 34.323-3.226 49.72c-15.828-6.986-27.952-19.985-33.837-36.573zm117.255 157.801c-10.828 13.727-26.611 22.303-44.329 23.857-17.701 1.56-34.752-4.144-47.805-15.777 10.828-13.727 26.612-22.303 44.33-23.857 17.714-1.556 34.752 4.144 47.804 15.777zm-32.259-41.64c-16.474 6.703-34.433 6.275-50.331-.997 6.304-16.307 18.861-29.152 35.335-35.855h.001c16.472-6.704 34.431-6.276 50.33.997-6.303 16.306-18.861 29.151-35.335 35.855zm19.417-67.191c-15.972 7.827-33.916 8.643-50.28 2.489 5.161-16.704 16.8-30.388 32.771-38.215 15.969-7.828 33.914-8.644 50.278-2.489-5.16 16.704-16.798 30.387-32.769 38.215zm22.707-69.968c-15.316 9.042-33.145 11.246-49.937 6.376 3.851-17.054 14.395-31.598 29.71-40.639 15.317-9.04 33.146-11.245 49.936-6.376-3.85 17.053-14.393 31.597-29.709 40.639z"/>
        </g>
        <g>
            <path fill="white" d="m97.095 374.894c-2.63 0-5.21-1.06-7.07-2.92-1.86-1.87-2.93-4.44-2.93-7.08 0-2.63 1.07-5.21 2.93-7.07s4.44-2.93 7.07-2.93 5.21 1.07 7.07 2.93 2.93 4.44 2.93 7.07c0 2.64-1.07 5.21-2.93 7.08-1.86 1.86-4.44 2.92-7.07 2.92z"/>
        </g>
    </g>
</svg>
